<svg xmlns="http://www.w3.org/2000/svg" xmlns:xlink="http://www.w3.org/1999/xlink" width="200" zoomAndPan="magnify" viewBox="0 0 150 112.499997" height="150" preserveAspectRatio="xMidYMid meet" version="1.0"><defs><g/><clipPath id="75aa688777"><rect x="0" width="78" y="0" height="26"/></clipPath><clipPath id="0bb1958503"><path d="M 1 0.753906 L 26.6875 0.753906 L 26.6875 17 L 1 17 Z M 1 0.753906 " clip-rule="nonzero"/></clipPath><clipPath id="c91c56c44a"><rect x="0" width="27" y="0" height="18"/></clipPath><clipPath id="70057f3d55"><path d="M 59 11.199219 L 91 11.199219 L 91 66.453125 L 59 66.453125 Z M 59 11.199219 " clip-rule="nonzero"/></clipPath></defs><g transform="matrix(1, 0, 0, 1, 23, 67)"><g clip-path="url(#75aa688777)"><g fill="#f59e0b" fill-opacity="1"><g transform="translate(1.230597, 19.13226)"><g><path d="M 4.09375 -9.9375 L 4.09375 -7.4375 L 8.125 -7.4375 L 8.125 -5.125 L 4.09375 -5.125 L 4.09375 -2.40625 L 8.65625 -2.40625 L 8.65625 0 L 1.09375 0 L 1.09375 -12.34375 L 8.65625 -12.34375 L 8.65625 -9.9375 Z M 4.09375 -9.9375 "/></g></g></g><g fill="#f59e0b" fill-opacity="1"><g transform="translate(10.742988, 19.13226)"><g><path d="M 4.09375 -13.015625 L 4.09375 0 L 1.09375 0 L 1.09375 -13.015625 Z M 4.09375 -13.015625 "/></g></g></g><g fill="#f59e0b" fill-opacity="1"><g transform="translate(15.92997, 19.13226)"><g><path d="M 10.34375 -5.0625 C 10.34375 -4.78125 10.328125 -4.488281 10.296875 -4.1875 L 3.484375 -4.1875 C 3.523438 -3.570312 3.71875 -3.101562 4.0625 -2.78125 C 4.414062 -2.46875 4.84375 -2.3125 5.34375 -2.3125 C 6.09375 -2.3125 6.617188 -2.625 6.921875 -3.25 L 10.109375 -3.25 C 9.953125 -2.601562 9.65625 -2.019531 9.21875 -1.5 C 8.789062 -0.988281 8.253906 -0.585938 7.609375 -0.296875 C 6.972656 -0.00390625 6.253906 0.140625 5.453125 0.140625 C 4.492188 0.140625 3.640625 -0.0625 2.890625 -0.46875 C 2.140625 -0.882812 1.550781 -1.472656 1.125 -2.234375 C 0.707031 -2.992188 0.5 -3.882812 0.5 -4.90625 C 0.5 -5.925781 0.703125 -6.816406 1.109375 -7.578125 C 1.523438 -8.335938 2.109375 -8.921875 2.859375 -9.328125 C 3.617188 -9.742188 4.484375 -9.953125 5.453125 -9.953125 C 6.398438 -9.953125 7.242188 -9.753906 7.984375 -9.359375 C 8.722656 -8.960938 9.300781 -8.394531 9.71875 -7.65625 C 10.132812 -6.914062 10.34375 -6.050781 10.34375 -5.0625 Z M 7.265625 -5.859375 C 7.265625 -6.378906 7.085938 -6.789062 6.734375 -7.09375 C 6.378906 -7.394531 5.941406 -7.546875 5.421875 -7.546875 C 4.910156 -7.546875 4.484375 -7.398438 4.140625 -7.109375 C 3.796875 -6.816406 3.582031 -6.398438 3.5 -5.859375 Z M 7.265625 -5.859375 "/></g></g></g><g fill="#f59e0b" fill-opacity="1"><g transform="translate(26.761081, 19.13226)"><g><path d="M 0.5 -4.90625 C 0.5 -5.925781 0.703125 -6.816406 1.109375 -7.578125 C 1.523438 -8.335938 2.101562 -8.921875 2.84375 -9.328125 C 3.59375 -9.742188 4.453125 -9.953125 5.421875 -9.953125 C 6.648438 -9.953125 7.675781 -9.628906 8.5 -8.984375 C 9.332031 -8.335938 9.878906 -7.429688 10.140625 -6.265625 L 6.9375 -6.265625 C 6.664062 -7.015625 6.140625 -7.390625 5.359375 -7.390625 C 4.816406 -7.390625 4.378906 -7.175781 4.046875 -6.75 C 3.710938 -6.320312 3.546875 -5.707031 3.546875 -4.90625 C 3.546875 -4.113281 3.710938 -3.5 4.046875 -3.0625 C 4.378906 -2.632812 4.816406 -2.421875 5.359375 -2.421875 C 6.140625 -2.421875 6.664062 -2.796875 6.9375 -3.546875 L 10.140625 -3.546875 C 9.878906 -2.398438 9.332031 -1.5 8.5 -0.84375 C 7.664062 -0.1875 6.640625 0.140625 5.421875 0.140625 C 4.453125 0.140625 3.59375 -0.0625 2.84375 -0.46875 C 2.101562 -0.882812 1.523438 -1.472656 1.109375 -2.234375 C 0.703125 -2.992188 0.5 -3.882812 0.5 -4.90625 Z M 0.5 -4.90625 "/></g></g></g><g fill="#f59e0b" fill-opacity="1"><g transform="translate(37.398783, 19.13226)"><g><path d="M 6.5625 -2.546875 L 6.5625 0 L 5.03125 0 C 3.9375 0 3.082031 -0.265625 2.46875 -0.796875 C 1.863281 -1.328125 1.5625 -2.195312 1.5625 -3.40625 L 1.5625 -7.3125 L 0.375 -7.3125 L 0.375 -9.8125 L 1.5625 -9.8125 L 1.5625 -12.203125 L 4.578125 -12.203125 L 4.578125 -9.8125 L 6.546875 -9.8125 L 6.546875 -7.3125 L 4.578125 -7.3125 L 4.578125 -3.375 C 4.578125 -3.082031 4.644531 -2.867188 4.78125 -2.734375 C 4.925781 -2.609375 5.160156 -2.546875 5.484375 -2.546875 Z M 6.5625 -2.546875 "/></g></g></g><g fill="#f59e0b" fill-opacity="1"><g transform="translate(44.537472, 19.13226)"><g><path d="M 4.09375 -8.1875 C 4.445312 -8.71875 4.882812 -9.140625 5.40625 -9.453125 C 5.9375 -9.765625 6.523438 -9.921875 7.171875 -9.921875 L 7.171875 -6.734375 L 6.34375 -6.734375 C 5.59375 -6.734375 5.03125 -6.570312 4.65625 -6.25 C 4.28125 -5.925781 4.09375 -5.363281 4.09375 -4.5625 L 4.09375 0 L 1.09375 0 L 1.09375 -9.8125 L 4.09375 -9.8125 Z M 4.09375 -8.1875 "/></g></g></g><g fill="#f59e0b" fill-opacity="1"><g transform="translate(52.062988, 19.13226)"><g><path d="M 0.5 -4.921875 C 0.5 -5.929688 0.6875 -6.816406 1.0625 -7.578125 C 1.445312 -8.335938 1.96875 -8.921875 2.625 -9.328125 C 3.28125 -9.742188 4.015625 -9.953125 4.828125 -9.953125 C 5.515625 -9.953125 6.117188 -9.8125 6.640625 -9.53125 C 7.160156 -9.25 7.5625 -8.878906 7.84375 -8.421875 L 7.84375 -9.8125 L 10.859375 -9.8125 L 10.859375 0 L 7.84375 0 L 7.84375 -1.390625 C 7.550781 -0.929688 7.144531 -0.5625 6.625 -0.28125 C 6.101562 0 5.492188 0.140625 4.796875 0.140625 C 4.003906 0.140625 3.28125 -0.0664062 2.625 -0.484375 C 1.96875 -0.898438 1.445312 -1.488281 1.0625 -2.25 C 0.6875 -3.019531 0.5 -3.910156 0.5 -4.921875 Z M 7.84375 -4.90625 C 7.84375 -5.65625 7.632812 -6.25 7.21875 -6.6875 C 6.800781 -7.125 6.296875 -7.34375 5.703125 -7.34375 C 5.097656 -7.34375 4.585938 -7.125 4.171875 -6.6875 C 3.753906 -6.257812 3.546875 -5.671875 3.546875 -4.921875 C 3.546875 -4.171875 3.753906 -3.578125 4.171875 -3.140625 C 4.585938 -2.703125 5.097656 -2.484375 5.703125 -2.484375 C 6.296875 -2.484375 6.800781 -2.695312 7.21875 -3.125 C 7.632812 -3.5625 7.84375 -4.15625 7.84375 -4.90625 Z M 7.84375 -4.90625 "/></g></g></g><g fill="#1e40af" fill-opacity="1"><g transform="translate(64.007266, 19.13226)"><g><path d="M 8.65625 0 L 6.140625 -3.78125 L 3.921875 0 L 0.515625 0 L 4.46875 -6.28125 L 0.421875 -12.34375 L 3.921875 -12.34375 L 6.40625 -8.625 L 8.578125 -12.34375 L 12 -12.34375 L 8.078125 -6.125 L 12.15625 0 Z M 8.65625 0 "/></g></g></g></g></g><g transform="matrix(1, 0, 0, 1, 101, 64)"><g clip-path="url(#c91c56c44a)"><g clip-path="url(#0bb1958503)"><path fill="#e43636" d="M 5.574219 0.914062 L 22.441406 0.914062 C 24.652344 0.914062 26.445312 2.707031 26.445312 4.921875 L 26.445312 12.929688 C 26.445312 15.140625 24.652344 16.933594 22.441406 16.933594 L 5.574219 16.933594 C 3.359375 16.933594 1.566406 15.140625 1.566406 12.929688 L 1.566406 4.921875 C 1.566406 2.707031 3.359375 0.914062 5.574219 0.914062 Z M 5.574219 0.914062 " fill-opacity="1" fill-rule="nonzero"/></g><g fill="#1e40af" fill-opacity="1"><g transform="translate(6.573581, 11.927717)"><g><path d="M 3.5 0.09375 C 3.09375 0.09375 2.722656 0.03125 2.390625 -0.09375 C 2.054688 -0.226562 1.769531 -0.421875 1.53125 -0.671875 C 1.300781 -0.921875 1.117188 -1.234375 0.984375 -1.609375 C 0.859375 -1.984375 0.796875 -2.414062 0.796875 -2.90625 L 0.796875 -7.015625 L 1.65625 -7.015625 L 1.65625 -2.90625 C 1.65625 -2.175781 1.820312 -1.617188 2.15625 -1.234375 C 2.5 -0.847656 2.945312 -0.65625 3.5 -0.65625 C 4.0625 -0.65625 4.507812 -0.847656 4.84375 -1.234375 C 5.1875 -1.617188 5.359375 -2.175781 5.359375 -2.90625 L 5.359375 -7.015625 L 6.203125 -7.015625 L 6.203125 -2.90625 C 6.203125 -2.414062 6.140625 -1.984375 6.015625 -1.609375 C 5.890625 -1.234375 5.707031 -0.921875 5.46875 -0.671875 C 5.238281 -0.421875 4.957031 -0.226562 4.625 -0.09375 C 4.289062 0.03125 3.914062 0.09375 3.5 0.09375 Z M 3.5 0.09375 "/></g></g></g><g fill="#1e40af" fill-opacity="1"><g transform="translate(15.580451, 11.927717)"><g><path d="M 0.84375 -7.015625 L 1.703125 -7.015625 L 1.703125 -3.65625 L 4.8125 -7.015625 L 5.8125 -7.015625 L 2.609375 -3.5625 L 5.953125 0 L 4.953125 0 L 1.703125 -3.453125 L 1.703125 0 L 0.84375 0 Z M 0.84375 -7.015625 "/></g></g></g></g></g><path fill="#1e40af" d="M 83.601562 23.601562 C 83.566406 23.582031 83.527344 23.558594 83.488281 23.539062 C 83.039062 23.289062 82.585938 23.054688 82.125 22.84375 C 72.40625 18.324219 60.707031 22.015625 55.40625 31.527344 C 51.976562 37.683594 52.03125 44.832031 54.925781 50.710938 C 50.824219 43.796875 50.410156 34.949219 54.601562 27.421875 C 60.878906 16.15625 75.09375 12.113281 86.359375 18.386719 Z M 83.601562 23.601562 " fill-opacity="1" fill-rule="nonzero"/><path fill="#1e40af" d="M 95.390625 50.144531 C 89.117188 61.40625 74.898438 65.453125 63.636719 59.175781 L 66.378906 53.957031 L 66.503906 54.027344 C 66.941406 54.269531 67.386719 54.496094 67.832031 54.703125 C 77.558594 59.246094 89.28125 55.5625 94.589844 46.035156 C 98.015625 39.882812 97.960938 32.734375 95.070312 26.859375 C 99.167969 33.773438 99.585938 42.617188 95.390625 50.144531 Z M 95.390625 50.144531 " fill-opacity="1" fill-rule="nonzero"/><g clip-path="url(#70057f3d55)"><path fill="#f59e0b" d="M 88.832031 35.328125 L 65.347656 60.363281 L 59.667969 66.417969 L 63.382812 59.351562 L 72.402344 42.1875 L 60.605469 42.578125 L 84.695312 17.230469 L 90.425781 11.199219 L 86.695312 18.261719 L 77.472656 35.710938 Z M 88.832031 35.328125 " fill-opacity="1" fill-rule="nonzero"/></g></svg>